<mxfile host="Electron" modified="2024-06-11T13:56:33.505Z" agent="Mozilla/5.0 (Macintosh; Intel Mac OS X 10_15_7) AppleWebKit/537.36 (KHTML, like Gecko) draw.io/24.2.5 Chrome/120.0.6099.109 Electron/28.1.0 Safari/537.36" etag="qMN4MpI3t4_ikudnSuqg" version="24.2.5" type="device">
  <diagram name="Page-1" id="4qV5im-uyx3e8O83S40s">
    <mxGraphModel dx="940" dy="660" grid="1" gridSize="10" guides="1" tooltips="1" connect="1" arrows="1" fold="1" page="1" pageScale="1" pageWidth="827" pageHeight="1169" math="0" shadow="0">
      <root>
        <mxCell id="0" />
        <mxCell id="1" parent="0" />
        <mxCell id="P3BAwu3zGgYxJAtaR1hX-3" style="edgeStyle=orthogonalEdgeStyle;rounded=0;orthogonalLoop=1;jettySize=auto;html=1;entryX=0.5;entryY=0;entryDx=0;entryDy=0;" edge="1" parent="1" source="P3BAwu3zGgYxJAtaR1hX-1" target="P3BAwu3zGgYxJAtaR1hX-2">
          <mxGeometry relative="1" as="geometry" />
        </mxCell>
        <mxCell id="P3BAwu3zGgYxJAtaR1hX-5" value="Enters username &lt;br&gt;and password" style="edgeLabel;html=1;align=center;verticalAlign=middle;resizable=0;points=[];" vertex="1" connectable="0" parent="P3BAwu3zGgYxJAtaR1hX-3">
          <mxGeometry x="-0.1143" y="1" relative="1" as="geometry">
            <mxPoint as="offset" />
          </mxGeometry>
        </mxCell>
        <mxCell id="P3BAwu3zGgYxJAtaR1hX-1" value="" style="html=1;verticalLabelPosition=bottom;align=center;labelBackgroundColor=#ffffff;verticalAlign=top;strokeWidth=2;strokeColor=#0080F0;shadow=0;dashed=0;shape=mxgraph.ios7.icons.user;" vertex="1" parent="1">
          <mxGeometry x="220" y="170" width="30" height="30" as="geometry" />
        </mxCell>
        <mxCell id="P3BAwu3zGgYxJAtaR1hX-12" style="edgeStyle=orthogonalEdgeStyle;rounded=0;orthogonalLoop=1;jettySize=auto;html=1;exitX=1;exitY=0.25;exitDx=0;exitDy=0;entryX=0;entryY=0.25;entryDx=0;entryDy=0;" edge="1" parent="1" source="P3BAwu3zGgYxJAtaR1hX-2" target="P3BAwu3zGgYxJAtaR1hX-4">
          <mxGeometry relative="1" as="geometry" />
        </mxCell>
        <mxCell id="P3BAwu3zGgYxJAtaR1hX-13" value="Username and&amp;nbsp;&lt;br&gt;password&amp;nbsp;" style="edgeLabel;html=1;align=center;verticalAlign=middle;resizable=0;points=[];" vertex="1" connectable="0" parent="P3BAwu3zGgYxJAtaR1hX-12">
          <mxGeometry x="-0.5942" y="-4" relative="1" as="geometry">
            <mxPoint as="offset" />
          </mxGeometry>
        </mxCell>
        <mxCell id="P3BAwu3zGgYxJAtaR1hX-16" value="Password stored and &lt;br&gt;access granted" style="edgeStyle=orthogonalEdgeStyle;rounded=0;orthogonalLoop=1;jettySize=auto;html=1;entryX=0.5;entryY=0;entryDx=0;entryDy=0;" edge="1" parent="1" source="P3BAwu3zGgYxJAtaR1hX-2" target="P3BAwu3zGgYxJAtaR1hX-7">
          <mxGeometry relative="1" as="geometry" />
        </mxCell>
        <mxCell id="P3BAwu3zGgYxJAtaR1hX-2" value="&lt;b&gt;Target Okta&lt;/b&gt;" style="rounded=1;whiteSpace=wrap;html=1;fillColor=#dae8fc;strokeColor=#6c8ebf;" vertex="1" parent="1">
          <mxGeometry x="175" y="280" width="120" height="60" as="geometry" />
        </mxCell>
        <mxCell id="P3BAwu3zGgYxJAtaR1hX-14" style="edgeStyle=orthogonalEdgeStyle;rounded=0;orthogonalLoop=1;jettySize=auto;html=1;exitX=0;exitY=0.75;exitDx=0;exitDy=0;entryX=1;entryY=0.75;entryDx=0;entryDy=0;" edge="1" parent="1" source="P3BAwu3zGgYxJAtaR1hX-4" target="P3BAwu3zGgYxJAtaR1hX-2">
          <mxGeometry relative="1" as="geometry" />
        </mxCell>
        <mxCell id="P3BAwu3zGgYxJAtaR1hX-15" value="Authentication &lt;br&gt;result" style="edgeLabel;html=1;align=center;verticalAlign=middle;resizable=0;points=[];" vertex="1" connectable="0" parent="P3BAwu3zGgYxJAtaR1hX-14">
          <mxGeometry x="-0.5536" y="-2" relative="1" as="geometry">
            <mxPoint as="offset" />
          </mxGeometry>
        </mxCell>
        <mxCell id="P3BAwu3zGgYxJAtaR1hX-4" value="&lt;b&gt;Source Okta&lt;/b&gt;" style="rounded=1;whiteSpace=wrap;html=1;fillColor=#dae8fc;strokeColor=#6c8ebf;" vertex="1" parent="1">
          <mxGeometry x="640" y="280" width="120" height="60" as="geometry" />
        </mxCell>
        <mxCell id="P3BAwu3zGgYxJAtaR1hX-6" value="Okta Account Migrator &lt;br&gt;Middleware" style="rounded=1;whiteSpace=wrap;html=1;fillColor=#f8cecc;strokeColor=#b85450;fontStyle=1" vertex="1" parent="1">
          <mxGeometry x="440" y="250" width="70" height="110" as="geometry" />
        </mxCell>
        <mxCell id="P3BAwu3zGgYxJAtaR1hX-7" value="&lt;b&gt;App&lt;/b&gt;" style="rounded=1;whiteSpace=wrap;html=1;fillColor=#dae8fc;strokeColor=#6c8ebf;" vertex="1" parent="1">
          <mxGeometry x="175" y="420" width="120" height="60" as="geometry" />
        </mxCell>
      </root>
    </mxGraphModel>
  </diagram>
</mxfile>
